<?xml version="1.0" standalone="no"?>
<!DOCTYPE svg PUBLIC "-//W3C//DTD SVG 20010904//EN"
 "http://www.w3.org/TR/2001/REC-SVG-20010904/DTD/svg10.dtd">
<svg version="1.0" xmlns="http://www.w3.org/2000/svg"
 width="240.000000pt" height="240.000000pt" viewBox="0 0 240.000000 240.000000"
 preserveAspectRatio="xMidYMid meet">

<g transform="translate(0.000000,240.000000) scale(0.100000,-0.100000)"
fill="#000000" stroke="none">
<path d="M1165 2350 c-3 -5 -2 -10 4 -10 5 0 13 5 16 10 3 6 2 10 -4 10 -5 0
-13 -4 -16 -10z"/>
<path d="M1016 2279 c-10 -17 -16 -33 -13 -35 2 -3 14 11 25 31 12 19 18 35
14 35 -4 0 -16 -14 -26 -31z"/>
<path d="M942 2150 c0 -19 2 -27 5 -17 2 9 2 25 0 35 -3 9 -5 1 -5 -18z"/>
<path d="M1332 2075 c-36 -20 -49 -35 -24 -28 11 3 28 14 38 24 19 22 18 22
-14 4z"/>
<path d="M1089 2013 c-13 -16 -12 -17 4 -4 9 7 17 15 17 17 0 8 -8 3 -21 -13z"/>
<path d="M940 1975 c0 -8 4 -15 10 -15 5 0 7 7 4 15 -4 8 -8 15 -10 15 -2 0
-4 -7 -4 -15z"/>
<path d="M1446 1967 c3 -10 9 -15 12 -12 3 3 0 11 -7 18 -10 9 -11 8 -5 -6z"/>
<path d="M1011 1954 c0 -11 3 -14 6 -6 3 7 2 16 -1 19 -3 4 -6 -2 -5 -13z"/>
<path d="M1115 1960 c-7 -12 2 -12 30 0 19 8 19 9 -2 9 -12 1 -25 -3 -28 -9z"/>
<path d="M1368 1963 c7 -3 16 -2 19 1 4 3 -2 6 -13 5 -11 0 -14 -3 -6 -6z"/>
<path d="M1500 1942 c0 -5 7 -9 15 -9 8 0 12 4 9 9 -3 4 -9 8 -15 8 -5 0 -9
-4 -9 -8z"/>
<path d="M1113 1912 c-9 -6 -8 -11 5 -19 14 -8 23 -6 41 8 l23 19 -28 0 c-16
0 -34 -4 -41 -8z"/>
<path d="M1340 1913 c1 -19 20 -38 28 -27 4 6 16 10 27 8 20 -3 20 -3 1 12
-21 15 -56 19 -56 7z"/>
<path d="M1051 1824 c0 -11 3 -14 6 -6 3 7 2 16 -1 19 -3 4 -6 -2 -5 -13z"/>
<path d="M1469 1813 c-13 -16 -12 -17 4 -4 9 7 17 15 17 17 0 8 -8 3 -21 -13z"/>
<path d="M1132 1664 c10 -10 20 -15 24 -12 3 4 -5 12 -18 18 -22 12 -22 12 -6
-6z"/>
<path d="M1054 1512 c4 -6 27 -14 53 -18 25 -4 58 -13 72 -20 14 -8 37 -13 51
-13 18 1 14 4 -14 10 -22 5 -45 14 -52 20 -8 6 -26 12 -41 13 -15 1 -39 6 -52
10 -16 6 -21 5 -17 -2z"/>
<path d="M1006 1501 c-4 -5 3 -7 14 -4 23 6 26 13 6 13 -8 0 -17 -4 -20 -9z"/>
<path d="M1345 1500 l-40 -7 53 -2 c33 0 51 3 47 9 -3 6 -9 9 -13 9 -4 -1 -25
-5 -47 -9z"/>
<path d="M1050 1450 c25 -8 87 -13 79 -6 -2 2 -26 6 -54 9 -34 4 -42 3 -25 -3z"/>
<path d="M1463 1453 c9 -2 23 -2 30 0 6 3 -1 5 -18 5 -16 0 -22 -2 -12 -5z"/>
<path d="M890 1440 c8 -5 20 -10 25 -10 6 0 3 5 -5 10 -8 5 -19 10 -25 10 -5
0 -3 -5 5 -10z"/>
<path d="M1285 1440 l-80 -6 70 -1 c39 -1 93 2 120 7 47 7 47 7 10 7 -22 0
-76 -4 -120 -7z"/>
<path d="M1153 1433 c9 -2 25 -2 35 0 9 3 1 5 -18 5 -19 0 -27 -2 -17 -5z"/>
<path d="M948 1418 c6 -6 18 -8 28 -6 14 3 12 5 -9 10 -19 3 -25 2 -19 -4z"/>
<path d="M1548 1413 c6 -2 18 -2 25 0 6 3 1 5 -13 5 -14 0 -19 -2 -12 -5z"/>
<path d="M806 1383 c-6 -14 -5 -15 5 -6 7 7 10 15 7 18 -3 3 -9 -2 -12 -12z"/>
<path d="M1045 1390 c11 -5 31 -9 45 -9 23 0 23 1 5 9 -11 5 -31 9 -45 9 -23
0 -23 -1 -5 -9z"/>
<path d="M1390 1390 l-35 -7 40 -1 c22 0 49 3 60 8 18 8 18 9 -5 8 -14 0 -41
-4 -60 -8z"/>
<path d="M1650 1396 c0 -2 7 -9 15 -16 13 -11 14 -10 9 4 -5 14 -24 23 -24 12z"/>
<path d="M1193 1373 c26 -2 67 -2 90 0 23 2 2 3 -48 3 -49 0 -68 -1 -42 -3z"/>
<path d="M1568 1363 c7 -3 16 -2 19 1 4 3 -2 6 -13 5 -11 0 -14 -3 -6 -6z"/>
<path d="M1043 1333 c9 -2 23 -2 30 0 6 3 -1 5 -18 5 -16 0 -22 -2 -12 -5z"/>
<path d="M1413 1333 c9 -2 25 -2 35 0 9 3 1 5 -18 5 -19 0 -27 -2 -17 -5z"/>
<path d="M1585 1320 c-16 -7 -17 -9 -3 -9 9 -1 19 -7 21 -13 3 -7 6 -3 6 10 1
12 0 22 -1 21 -2 0 -12 -4 -23 -9z"/>
<path d="M965 1311 c11 -4 36 -11 55 -15 24 -4 29 -3 15 3 -11 4 -36 11 -55
15 -24 4 -29 3 -15 -3z"/>
<path d="M766 1293 c-6 -14 -5 -15 5 -6 7 7 10 15 7 18 -3 3 -9 -2 -12 -12z"/>
<path d="M1528 1303 c6 -2 18 -2 25 0 6 3 1 5 -13 5 -14 0 -19 -2 -12 -5z"/>
<path d="M1648 1292 c-49 -18 -58 -25 -45 -38 4 -4 7 -3 7 3 0 5 19 16 43 23
23 7 46 17 52 22 13 12 -3 9 -57 -10z"/>
<path d="M808 1293 c7 -3 16 -2 19 1 4 3 -2 6 -13 5 -11 0 -14 -3 -6 -6z"/>
<path d="M1478 1293 c6 -2 18 -2 25 0 6 3 1 5 -13 5 -14 0 -19 -2 -12 -5z"/>
<path d="M1095 1280 c11 -5 36 -8 55 -8 l35 0 -30 8 c-16 4 -41 8 -55 8 -23 1
-23 0 -5 -8z"/>
<path d="M1335 1280 l-40 -7 45 0 c25 -1 59 3 75 7 l30 8 -35 -1 c-19 0 -53
-3 -75 -7z"/>
<path d="M894 1268 c-11 -18 -13 -50 -3 -73 8 -21 9 -18 12 48 2 41 2 43 -9
25z"/>
<path d="M968 1253 c7 -3 16 -2 19 1 4 3 -2 6 -13 5 -11 0 -14 -3 -6 -6z"/>
<path d="M1538 1253 c6 -2 18 -2 25 0 6 3 1 5 -13 5 -14 0 -19 -2 -12 -5z"/>
<path d="M750 1238 c0 -4 17 -8 38 -8 20 0 48 -3 62 -7 14 -3 22 -3 18 1 -9
11 -118 24 -118 14z"/>
<path d="M1656 1234 c-26 -9 -46 -17 -44 -20 5 -5 108 25 108 31 0 7 -9 5 -64
-11z"/>
<path d="M1038 1233 c7 -3 16 -2 19 1 4 3 -2 6 -13 5 -11 0 -14 -3 -6 -6z"/>
<path d="M1438 1233 c6 -2 18 -2 25 0 6 3 1 5 -13 5 -14 0 -19 -2 -12 -5z"/>
<path d="M1105 1219 c40 -8 232 -12 224 -5 -2 2 -62 5 -134 8 -76 3 -113 1
-90 -3z"/>
<path d="M1358 1223 c12 -2 32 -2 45 0 12 2 2 4 -23 4 -25 0 -35 -2 -22 -4z"/>
<path d="M945 1200 c3 -5 14 -10 23 -10 15 0 15 2 2 10 -20 13 -33 13 -25 0z"/>
<path d="M1545 1200 c-19 -8 -19 -9 2 -9 12 -1 25 4 28 9 7 12 -2 12 -30 0z"/>
<path d="M1715 1200 c-3 -5 1 -10 9 -10 9 0 16 5 16 10 0 6 -4 10 -9 10 -6 0
-13 -4 -16 -10z"/>
<path d="M738 1183 c7 -3 16 -2 19 1 4 3 -2 6 -13 5 -11 0 -14 -3 -6 -6z"/>
<path d="M788 1183 c12 -2 30 -2 40 0 9 3 -1 5 -23 4 -22 0 -30 -2 -17 -4z"/>
<path d="M1018 1179 c13 -5 49 -11 80 -14 l57 -5 -70 14 c-83 17 -99 18 -67 5z"/>
<path d="M1468 1183 c6 -2 18 -2 25 0 6 3 1 5 -13 5 -14 0 -19 -2 -12 -5z"/>
<path d="M1637 1178 c-25 -9 -28 -14 -25 -47 l3 -36 -55 -12 -55 -11 63 1 64
2 -5 42 c-4 40 -3 42 32 57 40 17 22 20 -22 4z"/>
<path d="M1345 1170 l-50 -7 50 0 c28 0 64 3 80 7 l30 8 -30 -1 c-16 0 -52 -3
-80 -7z"/>
<path d="M1188 1153 c18 -2 45 -2 60 0 15 2 0 4 -33 4 -33 0 -45 -2 -27 -4z"/>
<path d="M1711 1149 c-18 -6 -31 -13 -28 -16 8 -8 67 7 67 18 0 5 -1 9 -2 8
-2 0 -18 -5 -37 -10z"/>
<path d="M950 1140 c8 -5 22 -10 30 -10 13 0 13 1 0 10 -8 5 -22 10 -30 10
-13 0 -13 -1 0 -10z"/>
<path d="M1510 1140 c-13 -9 -13 -10 0 -9 8 0 24 4 35 9 l20 9 -20 0 c-11 0
-27 -4 -35 -9z"/>
<path d="M738 1133 c12 -2 30 -2 40 0 9 3 -1 5 -23 4 -22 0 -30 -2 -17 -4z"/>
<path d="M811 1126 c2 -2 22 -6 44 -9 28 -5 34 -4 20 3 -19 8 -73 14 -64 6z"/>
<path d="M1043 1113 c9 -2 25 -2 35 0 9 3 1 5 -18 5 -19 0 -27 -2 -17 -5z"/>
<path d="M1368 1113 c12 -2 32 -2 45 0 12 2 2 4 -23 4 -25 0 -35 -2 -22 -4z"/>
<path d="M1750 1113 c0 -6 -15 -15 -32 -21 -23 -7 -27 -10 -12 -11 24 -1 62
24 51 35 -4 4 -7 3 -7 -3z"/>
<path d="M1138 1103 c12 -2 30 -2 40 0 9 3 -1 5 -23 4 -22 0 -30 -2 -17 -4z"/>
<path d="M1223 1103 c15 -2 39 -2 55 0 15 2 2 4 -28 4 -30 0 -43 -2 -27 -4z"/>
<path d="M916 1090 c5 -5 25 -12 44 -15 36 -5 29 -1 -25 16 -20 6 -26 6 -19
-1z"/>
<path d="M700 1069 c0 -5 5 -7 10 -4 6 3 10 8 10 11 0 2 -4 4 -10 4 -5 0 -10
-5 -10 -11z"/>
<path d="M1658 1073 c7 -3 16 -2 19 1 4 3 -2 6 -13 5 -11 0 -14 -3 -6 -6z"/>
<path d="M790 1060 c14 -4 34 -8 45 -8 l20 -1 -20 9 c-11 5 -31 8 -45 8 l-25
0 25 -8z"/>
<path d="M1020 1059 c14 -6 89 -13 175 -14 l150 -3 -135 8 c-74 4 -153 10
-175 14 -35 6 -37 5 -15 -5z"/>
<path d="M1395 1060 c-39 -7 -38 -7 15 -8 30 0 64 3 75 8 16 7 13 8 -15 8 -19
-1 -53 -4 -75 -8z"/>
<path d="M1686 1034 c-40 -13 -50 -13 -57 -2 -5 7 -9 9 -9 3 0 -27 18 -29 80
-8 73 24 62 30 -14 7z"/>
<path d="M1588 1023 c7 -3 16 -2 19 1 4 3 -2 6 -13 5 -11 0 -14 -3 -6 -6z"/>
<path d="M1470 1005 c-46 -9 -55 -13 -30 -13 19 0 58 6 85 13 64 16 30 16 -55
0z"/>
<path d="M1775 1011 c-6 -5 -19 -11 -30 -14 -11 -3 -5 -5 13 -4 19 1 32 7 32
14 0 15 -3 16 -15 4z"/>
<path d="M751 1006 c2 -2 22 -6 44 -9 27 -4 35 -3 25 3 -14 9 -79 15 -69 6z"/>
<path d="M985 1000 c19 -8 73 -14 64 -6 -2 2 -22 6 -44 9 -28 5 -34 4 -20 -3z"/>
<path d="M1108 978 c23 -9 178 -9 227 1 26 5 -9 7 -102 7 -78 -1 -135 -4 -125
-8z"/>
<path d="M1685 980 c-11 -5 -36 -9 -55 -10 -19 -1 -28 -4 -20 -7 8 -3 18 -11
22 -17 6 -8 8 -7 8 1 0 7 16 15 35 19 19 3 38 10 41 15 6 11 -4 10 -31 -1z"/>
<path d="M865 970 c5 -9 125 -43 131 -38 2 2 -28 13 -66 25 -38 11 -67 17 -65
13z"/>
<path d="M681 956 c2 -2 33 -6 69 -9 40 -4 57 -2 45 3 -19 8 -123 14 -114 6z"/>
<path d="M1505 945 l-50 -14 50 6 c28 3 59 9 70 14 l20 8 -20 -1 c-11 0 -42
-6 -70 -13z"/>
<path d="M1750 944 c-33 -13 -33 -14 -5 -8 17 3 34 10 40 15 11 11 8 11 -35
-7z"/>
<path d="M1045 920 c17 -4 53 -8 80 -7 l50 0 -50 7 c-27 5 -63 8 -80 8 l-30 0
30 -8z"/>
<path d="M1280 920 l-55 -7 65 -1 c36 0 85 3 110 7 l45 8 -55 0 c-30 0 -80 -3
-110 -7z"/>
<path d="M1670 920 c-13 -9 -13 -10 0 -10 8 0 22 5 30 10 13 9 13 10 0 10 -8
0 -22 -5 -30 -10z"/>
<path d="M664 898 c-3 -4 10 -8 29 -8 19 0 50 -3 68 -6 19 -4 31 -4 27 0 -10
12 -118 24 -124 14z"/>
<path d="M1760 895 c-14 -8 -20 -14 -15 -14 6 0 21 6 35 14 14 8 21 14 15 14
-5 0 -21 -6 -35 -14z"/>
<path d="M895 890 c11 -5 27 -9 35 -9 9 0 8 4 -5 9 -11 5 -27 9 -35 9 -9 0 -8
-4 5 -9z"/>
<path d="M1545 890 c-27 -7 -28 -8 -5 -8 14 0 34 3 45 8 25 11 2 11 -40 0z"/>
<path d="M967 870 c4 -4 33 -11 63 -14 66 -7 56 -1 -18 12 -30 5 -50 6 -45 2z"/>
<path d="M1395 865 l-80 -13 75 5 c41 3 84 9 95 14 27 10 6 9 -90 -6z"/>
<path d="M838 811 c-1 -29 1 -46 6 -41 5 5 16 6 25 3 13 -4 13 -2 -1 7 -10 6
-18 22 -18 36 0 23 3 25 33 19 34 -6 21 7 -20 19 -19 6 -21 3 -25 -43z"/>
<path d="M1157 843 c18 -2 50 -2 70 0 21 2 7 4 -32 4 -38 0 -55 -2 -38 -4z"/>
<path d="M1750 839 c0 -5 5 -7 10 -4 6 3 10 8 10 11 0 2 -4 4 -10 4 -5 0 -10
-5 -10 -11z"/>
<path d="M668 823 c12 -2 30 -2 40 0 9 3 -1 5 -23 4 -22 0 -30 -2 -17 -4z"/>
<path d="M928 823 c7 -3 16 -2 19 1 4 3 -2 6 -13 5 -11 0 -14 -3 -6 -6z"/>
<path d="M1500 815 c-30 -7 -44 -13 -30 -13 14 -1 50 5 80 13 30 7 44 13 30
13 -14 0 -50 -6 -80 -13z"/>
<path d="M1785 809 c-34 -21 -29 -25 10 -7 14 6 25 15 25 20 0 10 1 10 -35
-13z"/>
<path d="M750 810 c14 -4 34 -8 45 -8 l20 -1 -20 9 c-11 5 -31 8 -45 8 l-25 0
25 -8z"/>
<path d="M982 810 c10 -6 42 -13 70 -15 l53 -4 -45 9 c-25 5 -56 12 -70 15
-21 4 -22 4 -8 -5z"/>
<path d="M1378 793 c12 -2 32 -2 45 0 12 2 2 4 -23 4 -25 0 -35 -2 -22 -4z"/>
<path d="M1168 783 c34 -2 90 -2 125 0 34 2 6 3 -63 3 -69 0 -97 -1 -62 -3z"/>
<path d="M1705 775 c-16 -8 -23 -14 -15 -14 8 0 26 6 40 14 32 18 15 18 -25 0z"/>
<path d="M634 768 c-4 -6 -3 -8 2 -5 5 3 39 -1 74 -8 70 -15 91 -13 38 3 -56
17 -107 21 -114 10z"/>
<path d="M930 755 c19 -7 44 -14 55 -14 11 0 0 7 -25 15 -57 17 -77 17 -30 -1z"/>
<path d="M1520 754 l-55 -13 49 5 c27 3 58 9 70 14 31 13 -1 10 -64 -6z"/>
<path d="M671 736 c12 -10 60 -16 54 -6 -3 5 -18 10 -32 10 -15 0 -24 -2 -22
-4z"/>
<path d="M821 723 c15 -17 30 -17 23 0 -3 8 -11 14 -19 14 -11 0 -12 -4 -4
-14z"/>
<path d="M1030 730 c14 -4 41 -8 60 -8 l35 0 -30 8 c-16 4 -43 8 -60 8 -29 0
-29 0 -5 -8z"/>
<path d="M1335 730 l-40 -7 45 -1 c25 0 63 3 85 7 l40 9 -45 -1 c-25 0 -63 -3
-85 -7z"/>
<path d="M1138 713 c7 -3 16 -2 19 1 4 3 -2 6 -13 5 -11 0 -14 -3 -6 -6z"/>
<path d="M1198 713 c18 -2 45 -2 60 0 15 2 0 4 -33 4 -33 0 -45 -2 -27 -4z"/>
<path d="M793 686 c20 -15 37 -31 37 -36 0 -6 10 -10 23 -9 l22 0 -22 9 c-13
5 -23 13 -23 18 0 5 -12 15 -27 23 -47 23 -49 22 -10 -5z"/>
<path d="M875 701 c11 -5 36 -11 55 -15 l35 -6 -35 14 c-19 8 -44 15 -55 15
l-20 0 20 -8z"/>
<path d="M1530 693 c-35 -7 -94 -17 -130 -22 -59 -8 -61 -9 -20 -10 41 -1 238
35 249 45 7 7 -32 2 -99 -13z"/>
<path d="M985 671 c19 -9 93 -15 84 -7 -2 2 -26 6 -54 10 -34 4 -43 3 -30 -3z"/>
<path d="M1138 653 c34 -2 90 -2 125 0 34 2 6 3 -63 3 -69 0 -97 -1 -62 -3z"/>
<path d="M1618 643 c7 -3 16 -2 19 1 4 3 -2 6 -13 5 -11 0 -14 -3 -6 -6z"/>
<path d="M940 615 c19 -7 46 -14 60 -14 14 0 4 6 -25 14 -63 18 -81 18 -35 0z"/>
<path d="M1499 625 c-3 -2 -30 -9 -60 -14 -40 -6 -45 -9 -19 -9 44 0 147 25
109 27 -14 0 -28 -1 -30 -4z"/>
<path d="M817 587 c-4 -10 2 -13 20 -9 18 3 21 7 11 13 -18 12 -25 11 -31 -4z"/>
<path d="M1072 588 c32 -8 203 -8 258 1 28 5 -15 7 -118 7 -90 -1 -153 -4
-140 -8z"/>
<path d="M1630 580 c-18 -12 -2 -12 25 0 13 6 15 9 5 9 -8 0 -22 -4 -30 -9z"/>
<path d="M915 564 c143 -52 406 -56 620 -9 87 19 41 18 -67 -2 -61 -11 -149
-17 -253 -17 -134 0 -173 3 -242 22 -94 25 -117 27 -58 6z"/>
<path d="M816 522 c-3 -5 -8 -44 -12 -87 -6 -71 -6 -77 8 -64 9 8 12 16 7 17
-5 2 -9 17 -9 33 0 27 2 28 33 24 l32 -5 -28 11 c-25 10 -28 16 -25 45 4 35 3
40 -6 26z"/>
<path d="M867 510 c11 -11 150 -43 163 -38 7 2 -29 13 -79 24 -51 11 -88 18
-84 14z"/>
<path d="M1585 510 l-20 -9 20 0 c11 0 27 4 35 9 13 9 13 10 0 9 -8 0 -24 -4
-35 -9z"/>
<path d="M1435 485 c-47 -9 -59 -13 -35 -13 19 -1 62 5 95 12 75 17 34 18 -60
1z"/>
<path d="M1078 463 c12 -2 32 -2 45 0 12 2 2 4 -23 4 -25 0 -35 -2 -22 -4z"/>
<path d="M1247 463 c18 -2 50 -2 70 0 21 2 7 4 -32 4 -38 0 -55 -2 -38 -4z"/>
<path d="M1615 450 c-25 -11 1 -11 35 0 20 6 21 8 5 8 -11 0 -29 -3 -40 -8z"/>
<path d="M910 429 c87 -36 314 -50 465 -29 105 15 196 32 192 37 -3 2 -51 -4
-108 -14 -142 -23 -410 -24 -495 0 -68 19 -93 21 -54 6z"/>
<path d="M875 370 c27 -12 43 -12 25 0 -8 5 -22 9 -30 9 -10 0 -8 -3 5 -9z"/>
<path d="M1520 370 c-12 -8 -12 -10 5 -9 11 0 29 4 40 9 18 8 18 9 -5 9 -14 0
-32 -4 -40 -9z"/>
<path d="M938 353 c7 -3 16 -2 19 1 4 3 -2 6 -13 5 -11 0 -14 -3 -6 -6z"/>
<path d="M1453 353 c9 -2 23 -2 30 0 6 3 -1 5 -18 5 -16 0 -22 -2 -12 -5z"/>
<path d="M800 340 c0 -5 10 -10 23 -10 18 0 19 2 7 10 -19 13 -30 13 -30 0z"/>
<path d="M1005 340 c40 -9 122 -13 114 -6 -2 2 -38 6 -79 9 -56 4 -65 3 -35
-3z"/>
<path d="M1280 340 l-65 -7 60 0 c33 -1 83 2 110 7 l50 7 -45 0 c-25 0 -74 -3
-110 -7z"/>
<path d="M860 322 c8 -6 31 -13 50 -16 23 -5 30 -4 20 2 -8 6 -31 13 -50 16
-23 5 -30 4 -20 -2z"/>
<path d="M1500 310 l-25 -8 25 0 c14 0 39 4 55 8 l30 8 -30 0 c-16 0 -41 -4
-55 -8z"/>
<path d="M995 288 c38 -14 363 -14 425 0 36 9 26 10 -55 4 -128 -9 -252 -9
-335 0 -54 6 -60 5 -35 -4z"/>
<path d="M806 265 c4 -8 11 -15 16 -15 6 0 5 6 -2 15 -7 8 -14 15 -16 15 -2 0
-1 -7 2 -15z"/>
<path d="M1458 253 c12 -2 32 -2 45 0 12 2 2 4 -23 4 -25 0 -35 -2 -22 -4z"/>
<path d="M993 233 c9 -2 23 -2 30 0 6 3 -1 5 -18 5 -16 0 -22 -2 -12 -5z"/>
<path d="M813 105 c0 -22 2 -30 4 -17 2 12 2 30 0 40 -3 9 -5 -1 -4 -23z"/>
</g>
</svg>
